<svg width="512" height="512" viewBox="0 0 512 512" fill="none" xmlns="http://www.w3.org/2000/svg" role="img" aria-labelledby="title desc">
  <title id="title">QueueMS Q Logo</title>
  <desc id="desc">A minimal futuristic QueueMS logo where queue dots form the letter Q.</desc>
  <rect width="512" height="512" rx="112" fill="#F7F6F1"/>
  <rect x="82" y="82" width="348" height="348" rx="88" fill="#FFFFFF" stroke="#E8E5DC" stroke-width="8"/>
  <rect x="110" y="110" width="292" height="292" rx="68" fill="#F4F3EE" stroke="#DCD8CF" stroke-width="4" stroke-dasharray="2 8"/>
  <g fill="#080808">
    <circle cx="208" cy="154" r="11"/>
    <circle cx="238" cy="146" r="11"/>
    <circle cx="268" cy="146" r="11"/>
    <circle cx="298" cy="154" r="11"/>
    <circle cx="180" cy="174" r="11"/>
    <circle cx="326" cy="174" r="11"/>
    <circle cx="160" cy="204" r="11"/>
    <circle cx="346" cy="204" r="11"/>
    <circle cx="152" cy="238" r="11"/>
    <circle cx="354" cy="238" r="11"/>
    <circle cx="152" cy="272" r="11"/>
    <circle cx="354" cy="272" r="11"/>
    <circle cx="162" cy="306" r="11"/>
    <circle cx="344" cy="306" r="11"/>
    <circle cx="184" cy="336" r="11"/>
    <circle cx="322" cy="336" r="11"/>
    <circle cx="214" cy="354" r="11"/>
    <circle cx="246" cy="362" r="11"/>
    <circle cx="278" cy="358" r="11"/>
    <circle cx="306" cy="366" r="11"/>
    <circle cx="328" cy="388" r="11"/>
    <circle cx="350" cy="410" r="11"/>
  </g>
  <g fill="#080808" opacity="0.9">
    <rect x="218" y="214" width="76" height="14" rx="7"/>
    <rect x="198" y="248" width="116" height="14" rx="7"/>
    <rect x="220" y="282" width="72" height="14" rx="7"/>
  </g>
  <g fill="#080808" opacity="0.35">
    <circle cx="126" cy="126" r="4"/>
    <circle cx="148" cy="126" r="4"/>
    <circle cx="170" cy="126" r="4"/>
    <circle cx="342" cy="126" r="4"/>
    <circle cx="364" cy="126" r="4"/>
    <circle cx="386" cy="126" r="4"/>
    <circle cx="126" cy="386" r="4"/>
    <circle cx="148" cy="386" r="4"/>
    <circle cx="170" cy="386" r="4"/>
  </g>
</svg>
